# xmcd CD database file
#
# Track frame offsets:
#	150
#	16370
#	39785
#	61285
#	83187
#	101040
#	118404
#	138520
#	154740
#	170560
#	190512
#	215325
#	239840
#
# Disc length: 3404 seconds
#
# Revision: 0
# Processed by: cddbd v1.5.1PL0 Copyright (c) Steve Scherf et al.
# Submitted via: CDex 1.51
#
DISCID=b20d4a0d
DTITLE=Jon Paris - Blue Planet
DYEAR=2004
DGENRE=Blues
TTITLE0=Good To Go
TTITLE1=The Boogie
TTITLE2='Til I Lost You
TTITLE3=Overhauled Cadillac
TTITLE4=This Ain't The Planet I Signed Up For
TTITLE5=Juke Joint Jump
TTITLE6=The Blues Had A Baby
TTITLE7=The Sad Night Owl
TTITLE8=One Step Forward And Two Steps Back
TTITLE9=Big Big City
TTITLE10=Talk To Me, Baby
TTITLE11=Paris Blues
TTITLE12=My Eyes Keep Me In Trouble
EXTD=YEAR: 2004
EXTT0=
EXTT1=
EXTT2=
EXTT3=
EXTT4=
EXTT5=
EXTT6=
EXTT7=
EXTT8=
EXTT9=
EXTT10=
EXTT11=
EXTT12=
PLAYORDER=
